<svg data-v-423bf9ae="" xmlns="http://www.w3.org/2000/svg" viewBox="0 0 340.5187475333639 185" class="iconAbove"><!----><!----><!----><g data-v-423bf9ae="" id="6de4dd37-63c4-48f2-9e94-be16bc54bb2e" fill="#000000" transform="matrix(5.763688845290021,0,0,5.763688845290021,-3.57349472357447,108.83955532821486)"><path d="M4.13 4.14L3.28 4.14L3.28 4.14Q3.25 5.05 3.25 5.97L3.25 5.97L3.25 5.97Q3.25 6.89 3.25 7.83L3.25 7.83L3.25 8.50L3.92 8.50L3.92 8.50Q4.63 8.50 5.13 8.34L5.13 8.34L5.13 8.34Q5.63 8.18 5.94 7.88L5.94 7.88L5.94 7.88Q6.26 7.59 6.41 7.18L6.41 7.18L6.41 7.18Q6.55 6.78 6.55 6.27L6.55 6.27L6.55 6.27Q6.55 5.26 5.98 4.70L5.98 4.70L5.98 4.70Q5.40 4.14 4.13 4.14L4.13 4.14ZM3.71 9.16L3.25 9.16L3.25 9.16Q3.25 9.90 3.25 10.63L3.25 10.63L3.25 10.63Q3.25 11.37 3.28 12.12L3.28 12.12L4.58 12.28L4.58 12.85L0.62 12.85L0.62 12.28L1.90 12.12L1.90 12.12Q1.93 11.24 1.93 10.34L1.93 10.34L1.93 10.34Q1.93 9.44 1.93 8.51L1.93 8.51L1.93 7.83L1.93 7.83Q1.93 6.92 1.93 6.02L1.93 6.02L1.93 6.02Q1.93 5.12 1.90 4.21L1.90 4.21L0.62 4.06L0.62 3.49L4.38 3.49L4.38 3.49Q5.26 3.49 5.94 3.69L5.94 3.69L5.94 3.69Q6.61 3.89 7.05 4.26L7.05 4.26L7.05 4.26Q7.49 4.63 7.71 5.15L7.71 5.15L7.71 5.15Q7.94 5.66 7.94 6.27L7.94 6.27L7.94 6.27Q7.94 6.86 7.71 7.38L7.71 7.38L7.71 7.38Q7.48 7.90 6.97 8.29L6.97 8.29L6.97 8.29Q6.47 8.69 5.66 8.93L5.66 8.93L5.66 8.93Q4.86 9.16 3.71 9.16L3.71 9.16ZM10.75 6.12L10.91 7.76L10.91 7.76Q11.27 6.92 11.81 6.45L11.81 6.45L11.81 6.45Q12.35 5.98 12.92 5.98L12.92 5.98L12.92 5.98Q13.23 5.98 13.52 6.14L13.52 6.14L13.52 6.14Q13.80 6.30 13.87 6.66L13.87 6.66L13.87 6.66Q13.87 7.01 13.64 7.22L13.64 7.22L13.64 7.22Q13.40 7.42 13.03 7.42L13.03 7.42L13.03 7.42Q12.60 7.42 12.24 7.07L12.24 7.07L12.14 6.97L12.14 6.97Q11.70 7.29 11.41 7.74L11.41 7.74L11.41 7.74Q11.12 8.18 10.92 8.81L10.92 8.81L10.92 9.91L10.92 9.91Q10.92 10.37 10.93 10.99L10.93 10.99L10.93 10.99Q10.93 11.61 10.95 12.14L10.95 12.14L12.10 12.35L12.10 12.85L8.71 12.85L8.71 12.35L9.72 12.17L9.72 12.17Q9.73 11.63 9.74 11.01L9.74 11.01L9.74 11.01Q9.74 10.39 9.74 9.91L9.74 9.91L9.74 9.20L9.74 9.20Q9.74 8.62 9.73 8.25L9.73 8.25L9.73 8.25Q9.72 7.87 9.70 7.45L9.70 7.45L8.60 7.32L8.60 6.83L10.54 5.98L10.75 6.12ZM15.82 8.86L18.37 8.86L18.37 8.86Q18.87 8.86 19.04 8.65L19.04 8.65L19.04 8.65Q19.21 8.44 19.21 8.13L19.21 8.13L19.21 8.13Q19.21 7.84 19.09 7.57L19.09 7.57L19.09 7.57Q18.97 7.29 18.77 7.08L18.77 7.08L18.77 7.08Q18.56 6.87 18.29 6.75L18.29 6.75L18.29 6.75Q18.02 6.62 17.70 6.62L17.70 6.62L17.70 6.62Q17.40 6.62 17.09 6.74L17.09 6.74L17.09 6.74Q16.77 6.86 16.51 7.13L16.51 7.13L16.51 7.13Q16.25 7.41 16.06 7.83L16.06 7.83L16.06 7.83Q15.88 8.26 15.82 8.86L15.82 8.86ZM20.27 9.46L15.79 9.46L15.79 9.46Q15.82 10.77 16.44 11.47L16.44 11.47L16.44 11.47Q17.05 12.17 18.06 12.17L18.06 12.17L18.06 12.17Q18.73 12.17 19.18 11.89L19.18 11.89L19.18 11.89Q19.63 11.61 20.01 11.16L20.01 11.16L20.34 11.42L20.34 11.42Q19.98 12.18 19.30 12.62L19.30 12.62L19.30 12.62Q18.62 13.06 17.65 13.06L17.65 13.06L17.65 13.06Q16.94 13.06 16.37 12.82L16.37 12.82L16.37 12.82Q15.79 12.59 15.39 12.13L15.39 12.13L15.39 12.13Q14.98 11.68 14.76 11.03L14.76 11.03L14.76 11.03Q14.53 10.39 14.53 9.59L14.53 9.59L14.53 9.59Q14.53 8.79 14.78 8.13L14.78 8.13L14.78 8.13Q15.04 7.46 15.48 6.99L15.48 6.99L15.48 6.99Q15.92 6.51 16.51 6.24L16.51 6.24L16.51 6.24Q17.09 5.98 17.75 5.98L17.75 5.98L17.75 5.98Q18.30 5.98 18.78 6.16L18.78 6.16L18.78 6.16Q19.26 6.34 19.61 6.69L19.61 6.69L19.61 6.69Q19.96 7.04 20.17 7.55L20.17 7.55L20.17 7.55Q20.37 8.05 20.37 8.68L20.37 8.68L20.37 8.68Q20.37 8.92 20.34 9.11L20.34 9.11L20.34 9.11Q20.31 9.31 20.27 9.46L20.27 9.46ZM24.15 12.19L25.40 12.19L25.40 12.19Q26.12 12.19 26.72 11.94L26.72 11.94L26.72 11.94Q27.31 11.68 27.73 11.17L27.73 11.17L27.73 11.17Q28.15 10.65 28.38 9.91L28.38 9.91L28.38 9.91Q28.62 9.16 28.62 8.18L28.62 8.18L28.62 8.18Q28.62 7.20 28.38 6.44L28.38 6.44L28.38 6.44Q28.15 5.68 27.73 5.17L27.73 5.17L27.73 5.17Q27.30 4.66 26.70 4.40L26.70 4.40L26.70 4.40Q26.11 4.14 25.38 4.14L25.38 4.14L24.15 4.14L24.15 4.14Q24.12 5.03 24.12 5.92L24.12 5.92L24.12 5.92Q24.12 6.82 24.12 7.73L24.12 7.73L26.28 7.73L26.28 8.39L24.12 8.39L24.12 8.39Q24.12 9.39 24.12 10.33L24.12 10.33L24.12 10.33Q24.12 11.27 24.15 12.19L24.15 12.19ZM21.49 3.49L25.63 3.49L25.63 3.49Q26.60 3.49 27.43 3.79L27.43 3.79L27.43 3.79Q28.25 4.10 28.85 4.69L28.85 4.69L28.85 4.69Q29.46 5.28 29.80 6.15L29.80 6.15L29.80 6.15Q30.14 7.03 30.14 8.16L30.14 8.16L30.14 8.16Q30.14 9.30 29.76 10.17L29.76 10.17L29.76 10.17Q29.39 11.05 28.73 11.64L28.73 11.64L28.73 11.64Q28.08 12.24 27.21 12.54L27.21 12.54L27.21 12.54Q26.33 12.85 25.35 12.85L25.35 12.85L21.49 12.85L21.49 12.28L22.78 12.12L22.78 12.12Q22.81 11.24 22.81 10.32L22.81 10.32L22.81 10.32Q22.81 9.39 22.81 8.39L22.81 8.39L21.49 8.39L21.49 7.73L22.81 7.73L22.81 7.73Q22.81 6.85 22.81 5.97L22.81 5.97L22.81 5.97Q22.81 5.10 22.78 4.21L22.78 4.21L21.49 4.06L21.49 3.49ZM32.90 9.14L35.67 9.14L34.30 5.10L32.90 9.14ZM38.07 12.15L39.12 12.28L39.12 12.85L35.31 12.85L35.31 12.28L36.68 12.11L35.90 9.80L32.68 9.80L31.89 12.10L33.25 12.28L33.25 12.85L30.03 12.85L30.03 12.28L31.22 12.10L34.22 3.49L35.06 3.49L38.07 12.15ZM45.70 12.14L46.66 12.35L46.66 12.85L44.72 12.99L44.56 11.75L44.56 11.75Q43.99 12.45 43.36 12.75L43.36 12.75L43.36 12.75Q42.73 13.06 42.08 13.06L42.08 13.06L42.08 13.06Q41.66 13.06 41.32 12.93L41.32 12.93L41.32 12.93Q40.98 12.80 40.74 12.50L40.74 12.50L40.74 12.50Q40.50 12.19 40.38 11.72L40.38 11.72L40.38 11.72Q40.26 11.24 40.26 10.54L40.26 10.54L40.31 7.01L39.31 6.80L39.31 6.31L41.37 6.12L41.51 6.26L41.44 8.22L41.44 10.39L41.44 10.39Q41.44 11.33 41.71 11.70L41.71 11.70L41.71 11.70Q41.99 12.07 42.56 12.07L42.56 12.07L42.56 12.07Q43.54 12.07 44.52 11.16L44.52 11.16L44.56 7.01L43.57 6.80L43.57 6.31L45.60 6.12L45.74 6.26L45.70 8.22L45.70 12.14ZM51.32 11.87L51.66 12.25L51.66 12.25Q51.39 12.60 50.97 12.80L50.97 12.80L50.97 12.80Q50.54 12.99 50.01 12.99L50.01 12.99L50.01 12.99Q49.27 12.99 48.84 12.61L48.84 12.61L48.84 12.61Q48.41 12.22 48.41 11.40L48.41 11.40L48.41 11.40Q48.41 11.13 48.42 10.87L48.42 10.87L48.42 10.87Q48.43 10.61 48.43 10.21L48.43 10.21L48.43 6.97L47.26 6.97L47.26 6.36L48.51 6.20L48.86 4.30L49.71 4.30L49.64 6.23L51.52 6.23L51.52 6.97L49.62 6.97L49.62 11.23L49.62 11.23Q49.62 11.77 49.82 12.02L49.82 12.02L49.82 12.02Q50.02 12.26 50.39 12.26L50.39 12.26L50.39 12.26Q50.81 12.26 51.32 11.87L51.32 11.87ZM58.72 12.15L59.70 12.35L59.70 12.85L56.45 12.85L56.45 12.35L57.48 12.15L57.48 12.15Q57.50 11.63 57.51 11.02L57.51 11.02L57.51 11.02Q57.51 10.40 57.51 9.91L57.51 9.91L57.51 8.68L57.51 8.68Q57.51 7.73 57.25 7.35L57.25 7.35L57.25 7.35Q56.98 6.97 56.36 6.97L56.36 6.97L56.36 6.97Q55.86 6.97 55.40 7.19L55.40 7.19L55.40 7.19Q54.94 7.41 54.38 7.90L54.38 7.90L54.38 9.91L54.38 9.91Q54.38 10.37 54.38 11.00L54.38 11.00L54.38 11.00Q54.39 11.62 54.40 12.15L54.40 12.15L55.37 12.35L55.37 12.85L52.12 12.85L52.12 12.35L53.17 12.15L53.17 12.15Q53.19 11.62 53.19 11.00L53.19 11.00L53.19 11.00Q53.20 10.37 53.20 9.91L53.20 9.91L53.20 3.91L52.05 3.77L52.05 3.28L54.19 2.65L54.39 2.76L54.33 4.75L54.33 7.28L54.33 7.28Q54.85 6.69 55.54 6.33L55.54 6.33L55.54 6.33Q56.22 5.98 56.90 5.98L56.90 5.98L56.90 5.98Q57.81 5.98 58.25 6.58L58.25 6.58L58.25 6.58Q58.69 7.18 58.69 8.57L58.69 8.57L58.69 9.91L58.69 9.91Q58.69 10.40 58.70 11.01L58.70 11.01L58.70 11.01Q58.70 11.62 58.72 12.15L58.72 12.15Z"></path></g><defs data-v-423bf9ae=""><linearGradient data-v-423bf9ae="" gradientTransform="rotate(25)" id="5959a78b-1136-4cbc-9069-191f7fdef107" x1="0%" y1="0%" x2="100%" y2="0%"><stop data-v-423bf9ae="" offset="0%" style="stop-color: rgb(0, 21, 214); stop-opacity: 1;"></stop><stop data-v-423bf9ae="" offset="100%" style="stop-color: rgb(9, 137, 251); stop-opacity: 1;"></stop></linearGradient></defs><g data-v-423bf9ae="" id="f40c51ef-5cf2-4059-a907-15a174e1ff90" transform="matrix(1.1111222161187067,0,0,1.1111222161187067,115.53089496826064,0.44333393813543864)" stroke="none" fill="url(#5959a78b-1136-4cbc-9069-191f7fdef107)"><path d="M48.92 50.541l.822.667.579-.712.557.728.841-.644-.498-.65.785-.234-.302-1.015-.336.1-.006-.733-1.059.009.008 1.024-1.342-.412-.31 1.013.767.235zM40.136 61.357l.823.667-2.196 2.705-.822-.667zM41.598 59.557l2.197-2.704.822.668-2.197 2.704zM45.258 55.052l2.198-2.704.822.668-2.197 2.705zM37.294 66.534l-.822-.668-.844 1.038-1.337.005.004 1.059 1.588-.006-.002-.529.411.333zM56.478 56.793l2.042 2.664-.84.645-2.042-2.665zM59.886 61.231l2.041 2.663-.84.645-2.042-2.664zM53.08 52.353l2.042 2.663-.84.645-2.042-2.664zM56.484 48.366l-2.687.8-.302-1.015 2.688-.8zM66.935 44.158l2.688-.799.302 1.016-2.688.799zM60.961 47.034l-2.688.8-.302-1.017 2.688-.799zM50.17 30.087l1.058-.008.028 3.594-1.059.008zM51.318 42.06l.027 3.594-1.06.008-.026-3.594zM50.243 39.668l-.028-3.594 1.06-.008.027 3.594zM40.818 47.28l-3.36-1.029.31-1.012 3.36 1.029zM43.37 46.955l3.361 1.029-.31 1.013-3.36-1.03zM35.212 45.564l-3.36-1.029.31-1.012 3.36 1.029zM38.695 36.577l1.001.344.39-1.135 1.2.029.026-1.059-.881-.022.268-.839-1.009-.322-.483 1.513zM38.01 41.827l-1.002-.345 1.013-2.943 1.001.345zM34.64 51.636l-1.002-.345 1.014-2.942 1 .345zM36.325 46.732l-1.002-.345 1.014-2.943 1.001.345zM33.957 56.268l.603-.871-.977-.676.386-1.123-1.001-.344-.28.814-.69-.517-.635.849 1.272.952.317-.424-.301.435zM40.642 59.609l2.605 1.805-.603.87-2.606-1.805zM36.298 56.597l2.606 1.805-.603.87-2.606-1.804zM44.98 62.617l2.606 1.804-.603.871-2.606-1.804zM50.636 67.398l1.302-.909-.606-.868-1 .698-1.004-.694-.603.87.685.474-.68.482.613.863 1.293-.916zM53.568 65.354l-.606-.869 2.44-1.702.607.869zM61.084 58.81l2.44-1.703.606.868-2.44 1.703zM59.466 59.943l.606.869-2.441 1.7-.606-.869zM64.492 45.986l.952-.283-.302-1.016-.952.283-.286-.964-1.015.301.286.965-.721.214.302 1.016.721-.214.286.964 1.015-.301zM65.36 48.916l.874 2.945-1.015.301-.874-2.945zM63.32 42.046l-1.015.3-.872-2.946 1.016-.3zM54.03 35.065l3.18.077-.025 1.06-3.18-.079zM46.612 34.885l-.026 1.06-3.18-.078.027-1.06zM48.73 34.939l3.18.077-.026 1.059-3.18-.078zM23.635 86.543l-.612-.864 1.295-.918.613.864zM35.173 77.067l2.713-1.924.612.863-2.713 1.924zM28.84 81.554l-.187.133-1.081-.706-.578.888.731.476-1.598 1.132.613.864 1.938-1.374 1.035.675.579-.887-1.117-.728zM44.214 70.655l2.713-1.923.612.863-2.713 1.924zM39.687 73.862l2.712-1.923.613.864-2.713 1.923zM30.646 80.273l2.712-1.923.612.863-2.713 1.923zM77.154 86.29l-.532-1.497.996-.355.533 1.497zM69.612 61.926l-.998.355-1.09-3.07.998-.354zM73.25 72.158l-.998.354-1.092-3.068.998-.355zM74.8 79.678l.997-.355 1.092 3.069-.998.355zM69.34 64.329l.997-.355 1.09 3.07-.997.355zM66.794 57.169l.998-.354-.527-1.483-.448-1.51-1.015.302.343 1.156-.989.69.606.869.733-.512zM60.913 35.232l-1.583-.039-.025 1.059 1.202.03.342 1.153 1.016-.301-.252-.85.886-.01-.011-1.059zM64.7 35.189l3.323-.036.011 1.06-3.322.035zM90.179 34.916l.011 1.06-3.322.035-.012-1.06zM73.567 35.095l.011 1.06-3.321.036-.012-1.059zM79.117 36.098l-3.323.035-.011-1.059 3.323-.035zM93.982 34.875l.012 1.06-1.59.016-.01-1.059zM49.526 2.766l1.009.322-.483 1.513-1.009-.322zM44.888 17.298l1.008.321-1.038 3.256-1.008-.322zM41.425 28.148l1.008.322-1.04 3.255-1.007-.321zM48.352 6.448l1.008.322-1.038 3.255-1.008-.322zM46.587 15.451l.824-2.58 1.435-.022-.016-1.058-3.026.044.016 1.059.475-.007-.716 2.242zM43.122 26.3l-1.008-.321 1.039-3.256 1.008.322zM6.73 34.623l1.27.953-.634.848-1.272-.953zM25.144 49.74l-2.666-1.998.635-.847 2.666 1.997zM9.78 36.909l2.666 1.996-.636.849-2.666-1.997zM20.7 46.41l-2.666-1.997.635-.848 2.666 1.998zM16.253 43.081l.636-.848-2.667-1.997-.635.848.057.042-.495-.143-.863 2.988 1.017.294.807-2.79zM29.59 53.069l-2.667-1.998.636-.848 2.666 1.998zM21.978 14.278l.894-.184-.177-.855.933-.014-.016-1.059-1.588.023.007.457-.238.049-.424-.123-.442 1.525 1.017.295zM16.606 29.034l.864-2.987 1.017.294-.864 2.988zM16.03 31.027l1.017.295-.865 2.987-1.018-.295zM20.35 16.09l1.018.294-.861 2.988-1.019-.294zM7.544 64.183l-1.017-.293.861-2.988 1.018.293zM10.272 50.94l1.018.295-.864 2.987-1.018-.295zM9.847 56.215l-.864 2.988-1.017-.295.864-2.987zM14.592 36.004l1.017.294-.864 2.987-1.017-.294zM11.863 49.245l-1.018-.294.863-2.988 1.018.294zM18.912 21.07l1.017.294-.866 2.987-1.017-.295zM7.606 67.955l-.004-.94-.881.003.245-.846-1.017-.295-.442 1.526.509.147-.289.444 1.331 1.331.513-.325H7v-.98l.333-.045zM20.654 77.732l-2.719-1.775.58-.887 2.719 1.774zM43.311 92.513l-2.72-1.774.58-.887 2.719 1.774zM38.774 89.557l-2.72-1.773.58-.887 2.718 1.773zM47.836 95.47l-2.719-1.772.578-.887 2.72 1.772zM16.116 74.771l-2.718-1.773.578-.887 2.719 1.773zM34.245 86.603l-2.719-1.774.58-.887 2.717 1.774zM25.178 80.686l-2.719-1.773.579-.887 2.718 1.773zM11.587 71.821l-2.718-1.773.579-.888 2.718 1.774zM67.053 84.705l-.676-.816 2.509-2.077.675.815zM58.693 91.626l-.676-.816 2.51-2.078.675.816zM87.98 67.398l-.675-.815 2.509-2.079.676.816zM54.501 95.085l-.675-.816 2.509-2.078.675.816zM62.875 88.165l-.675-.816 2.511-2.076.675.816zM79.61 74.317l-.676-.816 2.512-2.078.675.817zM75.426 77.782l2.51-2.076-.675-.815-2.349 1.942-.935-2.627-.998.355 1.092 3.068.949-.337zM71.244 81.24l-.675-.816 2.51-2.077.675.816zM83.794 70.86l-.675-.817 2.512-2.075.674.816zM92.94 60.851l-.59.24-.062-.062-.143.145-.186.076.033.08-.448.454.715.703-.772.638.675.816 1.224-1.012-.338-.408.491-.199zM81.891 33.705l-.98.399-1.227-3.016.98-.399zM79.85 28.68l-.98.399-1.229-3.015.98-.399zM90.074 53.816l-.98.4-1.229-3.015.981-.4zM85.983 43.764l-.981.4-1.229-3.017.98-.4zM85.816 46.172l.98-.4 1.229 3.016-.98.399zM89.908 56.224l.98-.4 1.228 3.014-.98.4zM75.753 18.632l-.98.4-1.23-3.016.982-.4zM82.848 36.058l1.803-.019-.011-1.059-3.323.035.012 1.059.521-.006-.121.05 1.228 3.016.98-.4zM77.795 23.657l-.98.399-1.228-3.016.981-.4zM28.656 12.09l.016 1.06-3.027.045-.016-1.058zM43.788 11.867l.016 1.059-3.027.044-.015-1.058zM63.961 11.566l.016 1.059-3.027.043-.015-1.059zM33.698 12.015l.016 1.06-3.026.045-.016-1.059zM53.872 11.715l.016 1.06-3.027.045-.016-1.059zM58.919 11.641l.016 1.06-3.027.044-.016-1.059zM69.005 11.491l.015 1.06-3.026.043-.016-1.06zM38.745 11.941l.015 1.06-3.025.044-.016-1.059zM19.466 66.962h2.966v1.059h-2.966zM14.524 66.981h2.965v1.059h-2.965zM9.582 67.001h2.965v1.059H9.582zM24.409 66.942h2.965v1.059h-2.965zM32.315 67.977l-2.965.012-.004-1.06 2.965-.011zM28.602 41.824l-1.037.214.321 1.555.531-.109 1.197.366.31-1.012-1.188-.364zM22.895 19.443l-.637-3.081 1.037-.214.637 3.08zM26.08 34.847l-.638-3.081 1.037-.215.638 3.081zM24.995 24.364l-1.038.215-.636-3.08 1.038-.215zM27.542 36.686l.636 3.08-1.037.215-.636-3.081zM26.054 29.5l-1.037.214-.635-3.081 1.037-.214zM51.68 24.95l-1.334.863.184.284-.39.003.012 1.588 1.059-.008-.009-1.16 1.053-.681zM65.423 17.319l-2.634 1.704-.575-.89 2.634-1.703zM54.012 24.702l-.574-.89 2.635-1.701.575.89zM61.037 20.163l-2.634 1.704-.575-.889 2.634-1.704zM69.816 14.48l-2.634 1.703-.575-.89 2.634-1.703zM71.571 13.347l.703-.455.452 1.109.981-.398-.6-1.472-.34.139-.148-.229-.009-.605-1.589.024.014.972-.039.026zM74.59 43.616l-1.132-1.115-.372.378-.15-.508-1.523.453.302 1.015 1.223-.363.91.894zM81.887 52.284l-2.414-2.374.742-.755 2.414 2.374zM89.935 60.199l-2.413-2.375.742-.754 2.413 2.374zM77.87 48.325l-2.412-2.375.743-.755 2.413 2.376zM85.912 56.241L83.5 53.867l.743-.755 2.413 2.374zM63.707 68.925l.616-1.464-.488-.206.42-.321-.966-1.261-.841.644.779 1.016-.497 1.181zM56.433 83.45l1.258-2.987.976.41-1.258 2.988zM60.772 75.896l-1.26 2.988-.975-.412 1.259-2.987zM56.57 85.858l-1.259 2.988-.976-.41 1.26-2.99zM52.245 93.412l1.259-2.987.976.41-1.259 2.989zM60.63 73.489l1.26-2.988.977.412-1.26 2.987zM52.375 95.815l-.129-.055-.089-.108-.056.047-.702-.296-.371.88-.799-.521-.578.887 1.33.868.29-.444.337.408 1.224-1.012-.485-.586z"></path><circle cx="6.41" cy="35.047" r="2.928"></circle><circle cx="32.979" cy="55.016" r="4.79"></circle><circle cx="93.05" cy="62.521" r="2.928"></circle><circle cx="93.987" cy="35.409" r="2.926"></circle><circle cx="51.27" cy="97.073" r="2.928"></circle><circle cx="6.015" cy="67.55" r="2.928"></circle><circle cx="50.332" cy="49.641" r="5.511"></circle><circle cx="39.816" cy="35" r="4.79"></circle><circle cx="60.904" cy="35.842" r="4.79"></circle><circle cx="77.649" cy="86.109" r="2.926"></circle><circle cx="50.635" cy="67.21" r="4.789"></circle><circle cx="66.735" cy="55.478" r="4.79"></circle><circle cx="28.249" cy="42.879" r="2.028"></circle><circle cx="50.633" cy="26.257" r="1.929"></circle><circle cx="35.881" cy="67.433" r="2.127"></circle><circle cx="63.833" cy="67.255" r="2.053"></circle><circle cx="50.032" cy="2.927" r="2.927"></circle><circle cx="72.616" cy="12.331" r="2.928"></circle><circle cx="73.085" cy="42.879" r="2.226"></circle><circle cx="23.331" cy="86.109" r="2.927"></circle><circle cx="22.031" cy="12.646" r="2.928"></circle></g><!----></svg>