<svg data-v-423bf9ae="" xmlns="http://www.w3.org/2000/svg" viewBox="0 0 340.5187475333639 60" class="font"><!----><!----><!----><g data-v-423bf9ae="" id="bdabb43a-20b0-419c-a0ae-0af43af445f3" fill="white" transform="matrix(5.763688845290021,0,0,5.763688845290021,-3.57349472357447,-15.273775512849596)"><path d="M4.13 4.14L3.28 4.14L3.28 4.14Q3.25 5.05 3.25 5.97L3.25 5.97L3.25 5.97Q3.25 6.89 3.25 7.83L3.25 7.83L3.25 8.50L3.92 8.50L3.92 8.50Q4.63 8.50 5.13 8.34L5.13 8.34L5.13 8.34Q5.63 8.18 5.94 7.88L5.94 7.88L5.94 7.88Q6.26 7.59 6.41 7.18L6.41 7.18L6.41 7.18Q6.55 6.78 6.55 6.27L6.55 6.27L6.55 6.27Q6.55 5.26 5.98 4.70L5.98 4.70L5.98 4.70Q5.40 4.14 4.13 4.14L4.13 4.14ZM3.71 9.16L3.25 9.16L3.25 9.16Q3.25 9.90 3.25 10.63L3.25 10.63L3.25 10.63Q3.25 11.37 3.28 12.12L3.28 12.12L4.58 12.28L4.58 12.85L0.62 12.85L0.62 12.28L1.90 12.12L1.90 12.12Q1.93 11.24 1.93 10.34L1.93 10.34L1.93 10.34Q1.93 9.44 1.93 8.51L1.93 8.51L1.93 7.83L1.93 7.83Q1.93 6.92 1.93 6.02L1.93 6.02L1.93 6.02Q1.93 5.12 1.90 4.21L1.90 4.21L0.62 4.06L0.62 3.49L4.38 3.49L4.38 3.49Q5.26 3.49 5.94 3.69L5.94 3.69L5.94 3.69Q6.61 3.89 7.05 4.26L7.05 4.26L7.05 4.26Q7.49 4.63 7.71 5.15L7.71 5.15L7.71 5.15Q7.94 5.66 7.94 6.27L7.94 6.27L7.94 6.27Q7.94 6.86 7.71 7.38L7.71 7.38L7.71 7.38Q7.48 7.90 6.97 8.29L6.97 8.29L6.97 8.29Q6.47 8.69 5.66 8.93L5.66 8.93L5.66 8.93Q4.86 9.16 3.71 9.16L3.71 9.16ZM10.75 6.12L10.91 7.76L10.91 7.76Q11.27 6.92 11.81 6.45L11.81 6.45L11.81 6.45Q12.35 5.98 12.92 5.98L12.92 5.98L12.92 5.98Q13.23 5.98 13.52 6.14L13.52 6.14L13.52 6.14Q13.80 6.30 13.87 6.66L13.87 6.66L13.87 6.66Q13.87 7.01 13.64 7.22L13.64 7.22L13.64 7.22Q13.40 7.42 13.03 7.42L13.03 7.42L13.03 7.42Q12.60 7.42 12.24 7.07L12.24 7.07L12.14 6.97L12.14 6.97Q11.70 7.29 11.41 7.74L11.41 7.74L11.41 7.74Q11.12 8.18 10.92 8.81L10.92 8.81L10.92 9.91L10.92 9.91Q10.92 10.37 10.93 10.99L10.93 10.99L10.93 10.99Q10.93 11.61 10.95 12.14L10.95 12.14L12.10 12.35L12.10 12.85L8.71 12.85L8.71 12.35L9.72 12.17L9.72 12.17Q9.73 11.63 9.74 11.01L9.74 11.01L9.74 11.01Q9.74 10.39 9.74 9.91L9.74 9.91L9.74 9.20L9.74 9.20Q9.74 8.62 9.73 8.25L9.73 8.25L9.73 8.25Q9.72 7.87 9.70 7.45L9.70 7.45L8.60 7.32L8.60 6.83L10.54 5.98L10.75 6.12ZM15.82 8.86L18.37 8.86L18.37 8.86Q18.87 8.86 19.04 8.65L19.04 8.65L19.04 8.65Q19.21 8.44 19.21 8.13L19.21 8.13L19.21 8.13Q19.21 7.84 19.09 7.57L19.09 7.57L19.09 7.57Q18.97 7.29 18.77 7.08L18.77 7.08L18.77 7.08Q18.56 6.87 18.29 6.75L18.29 6.75L18.29 6.75Q18.02 6.62 17.70 6.62L17.70 6.62L17.70 6.62Q17.40 6.62 17.09 6.74L17.09 6.74L17.09 6.74Q16.77 6.86 16.51 7.13L16.51 7.13L16.51 7.13Q16.25 7.41 16.06 7.83L16.06 7.83L16.06 7.83Q15.88 8.26 15.82 8.86L15.82 8.86ZM20.27 9.46L15.79 9.46L15.79 9.46Q15.82 10.77 16.44 11.47L16.44 11.47L16.44 11.47Q17.05 12.17 18.06 12.17L18.06 12.17L18.06 12.17Q18.73 12.17 19.18 11.89L19.18 11.89L19.18 11.89Q19.63 11.61 20.01 11.16L20.01 11.16L20.34 11.42L20.34 11.42Q19.98 12.18 19.30 12.62L19.30 12.62L19.30 12.62Q18.62 13.06 17.65 13.06L17.65 13.06L17.65 13.06Q16.94 13.06 16.37 12.82L16.37 12.82L16.37 12.82Q15.79 12.59 15.39 12.13L15.39 12.13L15.39 12.13Q14.98 11.68 14.76 11.03L14.76 11.03L14.76 11.03Q14.53 10.39 14.53 9.59L14.53 9.59L14.53 9.59Q14.53 8.79 14.78 8.13L14.78 8.13L14.78 8.13Q15.04 7.46 15.48 6.99L15.48 6.99L15.48 6.99Q15.92 6.51 16.51 6.24L16.51 6.24L16.51 6.24Q17.09 5.98 17.75 5.98L17.75 5.98L17.75 5.98Q18.30 5.98 18.78 6.16L18.78 6.16L18.78 6.16Q19.26 6.34 19.61 6.69L19.61 6.69L19.61 6.69Q19.96 7.04 20.17 7.55L20.17 7.55L20.17 7.55Q20.37 8.05 20.37 8.68L20.37 8.68L20.37 8.68Q20.37 8.92 20.34 9.11L20.34 9.11L20.34 9.11Q20.31 9.31 20.27 9.46L20.27 9.46ZM24.15 12.19L25.40 12.19L25.40 12.19Q26.12 12.19 26.72 11.94L26.72 11.94L26.72 11.94Q27.31 11.68 27.73 11.17L27.73 11.17L27.73 11.17Q28.15 10.65 28.38 9.91L28.38 9.91L28.38 9.91Q28.62 9.16 28.62 8.18L28.62 8.18L28.62 8.18Q28.62 7.20 28.38 6.44L28.38 6.44L28.38 6.44Q28.15 5.68 27.73 5.17L27.73 5.17L27.73 5.17Q27.30 4.66 26.70 4.40L26.70 4.40L26.70 4.40Q26.11 4.14 25.38 4.14L25.38 4.14L24.15 4.14L24.15 4.14Q24.12 5.03 24.12 5.92L24.12 5.92L24.12 5.92Q24.12 6.82 24.12 7.73L24.12 7.73L26.28 7.73L26.28 8.39L24.12 8.39L24.12 8.39Q24.12 9.39 24.12 10.33L24.12 10.33L24.12 10.33Q24.12 11.27 24.15 12.19L24.15 12.19ZM21.49 3.49L25.63 3.49L25.63 3.49Q26.60 3.49 27.43 3.79L27.43 3.79L27.43 3.79Q28.25 4.10 28.85 4.69L28.85 4.69L28.85 4.69Q29.46 5.28 29.80 6.15L29.80 6.15L29.80 6.15Q30.14 7.03 30.14 8.16L30.14 8.16L30.14 8.16Q30.14 9.30 29.76 10.17L29.76 10.17L29.76 10.17Q29.39 11.05 28.73 11.64L28.73 11.64L28.73 11.64Q28.08 12.24 27.21 12.54L27.21 12.54L27.21 12.54Q26.33 12.85 25.35 12.85L25.35 12.85L21.49 12.85L21.49 12.28L22.78 12.12L22.78 12.12Q22.81 11.24 22.81 10.32L22.81 10.32L22.81 10.32Q22.81 9.39 22.81 8.39L22.81 8.39L21.49 8.39L21.49 7.73L22.81 7.73L22.81 7.73Q22.81 6.85 22.81 5.97L22.81 5.97L22.81 5.97Q22.81 5.10 22.78 4.21L22.78 4.21L21.49 4.06L21.49 3.49ZM32.90 9.14L35.67 9.14L34.30 5.10L32.90 9.14ZM38.07 12.15L39.12 12.28L39.12 12.85L35.31 12.85L35.31 12.28L36.68 12.11L35.90 9.80L32.68 9.80L31.89 12.10L33.25 12.28L33.25 12.85L30.03 12.85L30.03 12.28L31.22 12.10L34.22 3.49L35.06 3.49L38.07 12.15ZM45.70 12.14L46.66 12.35L46.66 12.85L44.72 12.99L44.56 11.75L44.56 11.75Q43.99 12.45 43.36 12.75L43.36 12.75L43.36 12.75Q42.73 13.06 42.08 13.06L42.08 13.06L42.08 13.06Q41.66 13.06 41.32 12.93L41.32 12.93L41.32 12.93Q40.98 12.80 40.74 12.50L40.74 12.50L40.74 12.50Q40.50 12.19 40.38 11.72L40.38 11.72L40.38 11.72Q40.26 11.24 40.26 10.54L40.26 10.54L40.31 7.01L39.31 6.80L39.31 6.31L41.37 6.12L41.51 6.26L41.44 8.22L41.44 10.39L41.44 10.39Q41.44 11.33 41.71 11.70L41.71 11.70L41.71 11.70Q41.99 12.07 42.56 12.07L42.56 12.07L42.56 12.07Q43.54 12.07 44.52 11.16L44.52 11.16L44.56 7.01L43.57 6.80L43.57 6.31L45.60 6.12L45.74 6.26L45.70 8.22L45.70 12.14ZM51.32 11.87L51.66 12.25L51.66 12.25Q51.39 12.60 50.97 12.80L50.97 12.80L50.97 12.80Q50.54 12.99 50.01 12.99L50.01 12.99L50.01 12.99Q49.27 12.99 48.84 12.61L48.84 12.61L48.84 12.61Q48.41 12.22 48.41 11.40L48.41 11.40L48.41 11.40Q48.41 11.13 48.42 10.87L48.42 10.87L48.42 10.87Q48.43 10.61 48.43 10.21L48.43 10.21L48.43 6.97L47.26 6.97L47.26 6.36L48.51 6.20L48.86 4.30L49.71 4.30L49.64 6.23L51.52 6.23L51.52 6.97L49.62 6.97L49.62 11.23L49.62 11.23Q49.62 11.77 49.82 12.02L49.82 12.02L49.82 12.02Q50.02 12.26 50.39 12.26L50.39 12.26L50.39 12.26Q50.81 12.26 51.32 11.87L51.32 11.87ZM58.72 12.15L59.70 12.35L59.70 12.85L56.45 12.85L56.45 12.35L57.48 12.15L57.48 12.15Q57.50 11.63 57.51 11.02L57.51 11.02L57.51 11.02Q57.51 10.40 57.51 9.91L57.51 9.91L57.51 8.68L57.51 8.68Q57.51 7.73 57.25 7.35L57.25 7.35L57.25 7.35Q56.98 6.97 56.36 6.97L56.36 6.97L56.36 6.97Q55.86 6.97 55.40 7.19L55.40 7.19L55.40 7.19Q54.94 7.41 54.38 7.90L54.38 7.90L54.38 9.91L54.38 9.91Q54.38 10.37 54.38 11.00L54.38 11.00L54.38 11.00Q54.39 11.62 54.40 12.15L54.40 12.15L55.37 12.35L55.37 12.85L52.12 12.85L52.12 12.35L53.17 12.15L53.17 12.15Q53.19 11.62 53.19 11.00L53.19 11.00L53.19 11.00Q53.20 10.37 53.20 9.91L53.20 9.91L53.20 3.91L52.05 3.77L52.05 3.28L54.19 2.65L54.39 2.76L54.33 4.75L54.33 7.28L54.33 7.28Q54.85 6.69 55.54 6.33L55.54 6.33L55.54 6.33Q56.22 5.98 56.90 5.98L56.90 5.98L56.90 5.98Q57.81 5.98 58.25 6.58L58.25 6.58L58.25 6.58Q58.69 7.18 58.69 8.57L58.69 8.57L58.69 9.91L58.69 9.91Q58.69 10.40 58.70 11.01L58.70 11.01L58.70 11.01Q58.70 11.62 58.72 12.15L58.72 12.15Z"></path></g><!----><!----></svg>